<svg xmlns="http://www.w3.org/2000/svg" width="18" height="18" viewBox="0 0 18 18" fill="none">
  <path fill-rule="evenodd" clip-rule="evenodd" d="M0.816406 4.85124C0.816406 2.55005 2.68189 0.68457 4.98307 0.68457H13.3164C15.6176 0.68457 17.4831 2.55005 17.4831 4.85124V13.1846C17.4831 15.4858 15.6176 17.3512 13.3164 17.3512H4.98307C2.68189 17.3512 0.816406 15.4858 0.816406 13.1846V4.85124ZM12.9956 7.76374L9.03724 11.7221C8.89557 11.8637 8.71224 11.9304 8.52057 11.9304C8.33724 11.9304 8.15391 11.8637 8.01224 11.7221L6.02891 9.74707C5.74557 9.4554 5.74557 8.99707 6.02891 8.71374C6.31224 8.4304 6.77891 8.4304 7.06224 8.71374L8.52057 10.1721L11.9622 6.7304C12.2456 6.44707 12.7122 6.44707 12.9956 6.7304C13.2789 7.02207 13.2789 7.4804 12.9956 7.76374Z" fill="#FFCC5C"/>
</svg>