<svg width="20" height="21" viewBox="0 0 20 21" fill="none" xmlns="http://www.w3.org/2000/svg">
<g id="end icon">
<path id="primary-shape" d="M10.0004 13.266C9.8057 13.2664 9.61701 13.1986 9.46708 13.0744L4.46708 8.9077C4.1127 8.61315 4.06419 8.08709 4.35874 7.7327C4.6533 7.37832 5.17936 7.32982 5.53374 7.62437L10.0004 11.3577L14.4671 7.7577C14.6392 7.61789 14.86 7.55248 15.0806 7.57594C15.3011 7.5994 15.5032 7.7098 15.6421 7.8827C15.7964 8.05592 15.8715 8.2856 15.8493 8.5165C15.8272 8.7474 15.7098 8.95863 15.5254 9.09937L10.5254 13.1244C10.3712 13.229 10.1863 13.2788 10.0004 13.266Z" fill="#637381"/>
</g>
</svg>
