<svg width="21" height="21" viewBox="0 0 21 21" fill="none" xmlns="http://www.w3.org/2000/svg">
<g id="select arrow">
<path id="primary-shape" d="M10.1469 12.935C9.95219 12.9354 9.76349 12.8675 9.61356 12.7433L4.61356 8.57665C4.25918 8.2821 4.21068 7.75603 4.50523 7.40165C4.79978 7.04727 5.32585 6.99876 5.68023 7.29332L10.1469 11.0266L14.6136 7.42665C14.7857 7.28684 15.0065 7.22142 15.227 7.24489C15.4476 7.26835 15.6497 7.37875 15.7886 7.55165C15.9428 7.72486 16.0179 7.95455 15.9958 8.18545C15.9737 8.41635 15.8563 8.62757 15.6719 8.76832L10.6719 12.7933C10.5177 12.8979 10.3328 12.9478 10.1469 12.935Z" fill="#637381"/>
</g>
</svg>
