<svg xmlns="http://www.w3.org/2000/svg" width="18" height="18" viewBox="0 0 21 21" fill="none">
  <path fill-rule="evenodd" clip-rule="evenodd" d="M5.98307 1.68457C3.68189 1.68457 1.81641 3.55005 1.81641 5.85124V14.1846C1.81641 16.4858 3.68189 18.3512 5.98307 18.3512H14.3164C16.6176 18.3512 18.4831 16.4858 18.4831 14.1846V5.85124C18.4831 3.55005 16.6176 1.68457 14.3164 1.68457H5.98307ZM6.39974 2.93457C4.55879 2.93457 3.06641 4.42695 3.06641 6.2679V13.7679C3.06641 15.6089 4.55879 17.1012 6.39974 17.1012H13.8997C15.7407 17.1012 17.2331 15.6089 17.2331 13.7679V6.2679C17.2331 4.42695 15.7407 2.93457 13.8997 2.93457H6.39974Z" fill="#637381"/>
</svg>